<svg xmlns:xlink="http://www.w3.org/1999/xlink" xmlns="http://www.w3.org/2000/svg" viewBox="0 0 65.19 65.19" role="img" aria-labelledby="ajwprgapj61kg3vygx4afhs6qs12y3s9" class="logo-ralph-only" width="65.19"  height="65.19" ><title id="ajwprgapj61kg3vygx4afhs6qs12y3s9">thoughtbot</title><defs><style>.cls-1{fill:#e03131;}.cls-2{fill:#fff;fill-rule:evenodd;}</style></defs><path class="cls-1" d="M32.6,65.19A32.6,32.6,0,1,0,0,32.6,32.59,32.59,0,0,0,32.6,65.19Z" fill="#E03131"></path><path class="cls-2" d="M33,7.55a10.48,10.48,0,0,1,7.62,3l.8-1.16A11.9,11.9,0,0,0,33,6.15a11.94,11.94,0,0,0-8.44,3.21l.8,1.16A10.48,10.48,0,0,1,33,7.55Zm5.32,4.51a8.62,8.62,0,0,0-5.24-1.65h0a8.61,8.61,0,0,0-5.23,1.65,6,6,0,0,0-.87.8l-.81-1.17A9.59,9.59,0,0,1,33.11,9a9.67,9.67,0,0,1,6.8,2.56l-.8,1.17A6.23,6.23,0,0,0,38.35,12.06ZM33,13.39A6.53,6.53,0,0,1,37.52,15l.81-1.16a8.37,8.37,0,0,0-10.62,0l.81,1.17A6.52,6.52,0,0,1,33,13.39ZM23.12,35.12v9.37a3.1,3.1,0,0,1,.73,1.94,3.05,3.05,0,0,1-1.05,2.31L22,47.92a1.86,1.86,0,0,0,.73-1.48,1.83,1.83,0,1,0-3.65,0,1.86,1.86,0,0,0,.72,1.47l-.8.82a3,3,0,0,1-1.06-2.29,2.9,2.9,0,0,1,.68-1.95V29.94a1.1,1.1,0,0,1,1.05-1H45.93a1.11,1.11,0,0,1,1.06,1V44.5a3.34,3.34,0,0,1,.68,1.94,3,3,0,0,1-1.05,2.29l-.81-.81a1.9,1.9,0,0,0,.72-1.48,1.83,1.83,0,1,0-2.93,1.48l-.8.82a3,3,0,0,1-1.06-2.3,3.31,3.31,0,0,1,.73-1.95V35.2H41.19V54.87l.76.5V57H33.14V55.37l1-.48V48.81H31.56v6.06l.9.5V57H23.57V55.37l.91-.5V35.12Zm3.09-18.58H39.56a1,1,0,0,1,1,1V26.4a1,1,0,0,1-1,1H26.21a1,1,0,0,1-1-1V17.56A1,1,0,0,1,26.21,16.54ZM29.48,23a1.73,1.73,0,1,1,1.7-1.72A1.71,1.71,0,0,1,29.48,23Zm5.12-1.72A1.72,1.72,0,0,0,36.31,23h0a1.73,1.73,0,1,0-1.71-1.72Zm-4.25,0a.87.87,0,1,1-.87-.89.9.9,0,0,1,.62.26A.93.93,0,0,1,30.35,21.31Zm5.09,0a.87.87,0,1,0,1.74,0,.87.87,0,1,0-1.74,0Z" fill="#FFFFFF"></path></svg>